<svg width="35" height="32" viewBox="0 0 35 32" fill="none" xmlns="http://www.w3.org/2000/svg">
<g clip-path="url(#clip0_1544_1829)">
<path fill-rule="evenodd" clip-rule="evenodd" d="M3.98273 20.449C3.59209 19.7755 3.1672 19.1085 2.91357 18.9214C5.66108 17.7453 10.6994 25.6111 17.2309 26.7704H17.2289C17.16 26.7773 15.7259 26.9103 13.7087 26.6241C12.7117 26.356 11.7514 25.8986 10.8437 25.275C9.8908 24.6214 8.96314 23.932 8.03997 23.2327C7.26522 22.6466 6.49414 22.0485 5.699 21.4942C5.18074 21.1328 4.59804 20.7459 3.98273 20.4486" fill="#D9042B"/>
<path fill-rule="evenodd" clip-rule="evenodd" d="M7.22266 20.0995C7.22266 20.0995 9.47881 19.423 11.4552 21.9611C12.9232 23.848 14.1595 24.9479 14.9861 25.4897C14.4432 25.2555 13.9134 24.9891 13.399 24.6919C11.242 23.4534 9.40297 21.8169 7.44815 20.2751C7.37394 20.2178 7.29809 20.1589 7.22266 20.0995Z" fill="#D9042B"/>
<path fill-rule="evenodd" clip-rule="evenodd" d="M13.955 6.96724C13.955 6.96724 10.1334 10.3362 9.86145 15.837H8.00042C8.24647 13.9631 8.91588 12.1791 9.9522 10.6354C10.9885 9.09171 12.3614 7.83364 13.955 6.96724ZM18.1447 4.68094C12.3243 5.15214 7.65259 9.95108 7.01281 16.0341C6.74982 16.0586 6.50608 16.1898 6.33291 16.4001C6.15974 16.6104 6.07065 16.8835 6.08439 17.1617C6.09813 17.44 6.21363 17.7017 6.40657 17.8919C6.59951 18.0821 6.85485 18.1859 7.11883 18.1814H31.0545C31.3184 18.1857 31.5737 18.0819 31.7665 17.8917C31.9594 17.7014 32.0748 17.4397 32.0885 17.1615C32.1021 16.8833 32.013 16.6103 31.8399 16.4001C31.6668 16.1898 31.4231 16.0586 31.1601 16.0341C30.5208 9.95108 25.8486 5.15171 20.0282 4.68094C20.1964 4.48796 20.3077 4.24748 20.3485 3.98886C20.3893 3.73023 20.3578 3.46467 20.258 3.2246C20.1581 2.98452 19.9942 2.78033 19.7862 2.63696C19.5782 2.49359 19.3351 2.41724 19.0867 2.41724C18.8382 2.41724 18.5952 2.49359 18.3872 2.63696C18.1792 2.78033 18.0152 2.98452 17.9154 3.2246C17.8155 3.46467 17.7841 3.73023 17.8249 3.98886C17.8657 4.24748 17.977 4.48796 18.1451 4.68094H18.1447Z" fill="#158C03"/>
<path fill-rule="evenodd" clip-rule="evenodd" d="M19.0959 2.09918e-07C23.0757 2.72501e-07 26.8924 1.66841 29.7065 4.6382C32.5207 7.60799 34.1016 11.6359 34.1016 15.8358C34.1016 20.0357 32.5207 24.0636 29.7065 27.0334C26.8924 30.0032 23.0757 31.6716 19.0959 31.6716C13.4342 31.6716 8.27555 29.6379 4.5698 24.9586C2.36258 22.1719 0 21.473 0 21.473C2.66514 18.8188 5.24424 22.1185 10.548 25.7577C15.8518 29.3969 20.5097 26.0977 20.5097 26.0977C18.5312 22.7816 13.2649 21.717 13.2649 21.717C16.4422 18.8816 21.1502 23.051 25.8069 23.5876C30.9508 24.1806 32.8832 20.6477 32.8832 15.8393C32.8809 13.814 32.478 11.8116 31.7003 9.96014C30.9226 8.10866 29.7872 6.44891 28.3668 5.08708C26.9464 3.72525 25.2723 2.69134 23.4515 2.0515C21.6307 1.41167 19.7034 1.18 17.793 1.37133C15.8825 1.56266 14.0309 2.17277 12.3567 3.16262C10.6825 4.15247 9.22247 5.50026 8.07015 7.11974C6.91783 8.73923 6.09856 10.5947 5.66475 12.5675C5.23094 14.5403 5.19216 16.587 5.55088 18.5765C5.12191 18.3355 4.67663 18.1376 4.23217 18.027C3.9352 15.7839 4.09764 13.4996 4.70853 11.3283C5.31942 9.1571 6.36455 7.14941 7.77337 5.44077C9.18219 3.73212 10.9219 2.36229 12.8752 1.4237C14.8284 0.485122 16.9497 -0.000368553 19.0959 2.09918e-07Z" fill="#D9042B"/>
</g>
<defs>
<clipPath id="clip0_1544_1829">
<rect width="34.1008" height="31.6699" fill="white"/>
</clipPath>
</defs>
</svg>
